<svg id="Capa_1" fill="#C8242F" enable-background="new 0 0 512 512" height="512" viewBox="0 0 512 512" width="512" xmlns="http://www.w3.org/2000/svg"><g><path d="m7.5 365.904c4.142 0 7.5-3.357 7.5-7.5v-203.904h331c4.142 0 7.5-3.357 7.5-7.5s-3.358-7.5-7.5-7.5h-331v-42.5c0-17.921 14.58-32.5 32.5-32.5h40.309c4.142 0 7.5-3.357 7.5-7.5s-3.358-7.5-7.5-7.5h-40.309c-26.191 0-47.5 21.309-47.5 47.5v261.404c0 4.143 3.358 7.5 7.5 7.5z"/><path d="m464.5 49.5h-341.691c-4.142 0-7.5 3.357-7.5 7.5s3.358 7.5 7.5 7.5h341.691c17.92 0 32.5 14.579 32.5 32.5v42.5h-116c-4.142 0-7.5 3.357-7.5 7.5s3.358 7.5 7.5 7.5h116v260.5c0 17.921-14.58 32.5-32.5 32.5h-417c-17.92 0-32.5-14.579-32.5-32.5v-21.596c0-4.143-3.358-7.5-7.5-7.5s-7.5 3.357-7.5 7.5v21.596c0 26.191 21.309 47.5 47.5 47.5h417c26.191 0 47.5-21.309 47.5-47.5v-318c0-26.191-21.309-47.5-47.5-47.5z"/><path d="m30.75 101.75c0 12.406 10.093 22.5 22.5 22.5s22.5-10.094 22.5-22.5-10.093-22.5-22.5-22.5-22.5 10.094-22.5 22.5zm30 0c0 4.136-3.364 7.5-7.5 7.5s-7.5-3.364-7.5-7.5 3.364-7.5 7.5-7.5 7.5 3.364 7.5 7.5z"/><path d="m117.5 124.5c12.407 0 22.5-10.094 22.5-22.5s-10.093-22.5-22.5-22.5-22.5 10.094-22.5 22.5 10.093 22.5 22.5 22.5zm0-30c4.136 0 7.5 3.364 7.5 7.5s-3.364 7.5-7.5 7.5-7.5-3.364-7.5-7.5 3.364-7.5 7.5-7.5z"/><path d="m204 102c0-12.406-10.093-22.5-22.5-22.5s-22.5 10.094-22.5 22.5 10.093 22.5 22.5 22.5 22.5-10.094 22.5-22.5zm-30 0c0-4.136 3.364-7.5 7.5-7.5s7.5 3.364 7.5 7.5-3.364 7.5-7.5 7.5-7.5-3.364-7.5-7.5z"/><path d="m482 102c0-12.406-10.093-22.5-22.5-22.5h-213c-12.407 0-22.5 10.094-22.5 22.5s10.093 22.5 22.5 22.5h213c12.407 0 22.5-10.094 22.5-22.5zm-243 0c0-4.136 3.364-7.5 7.5-7.5h213c4.136 0 7.5 3.364 7.5 7.5s-3.364 7.5-7.5 7.5h-213c-4.136 0-7.5-3.364-7.5-7.5z"/><path d="m371.089 323.74c3.109-.992 5.22-3.881 5.22-7.145v-31.383c0-3.264-2.11-6.152-5.22-7.145l-20.162-6.435c-1.834-5.968-4.234-11.754-7.166-17.282l9.711-18.815c1.497-2.899.946-6.435-1.361-8.743l-22.191-22.191c-2.307-2.308-5.842-2.858-8.743-1.361l-18.816 9.712c-3.903-2.068-7.947-3.878-12.088-5.408l-8.157-22.224c-1.083-2.953-3.895-4.916-7.041-4.916h-38.532c-3.146 0-5.957 1.963-7.041 4.916l-8.116 22.112c-4.045 1.435-8.545 3.441-12.251 5.457l-18.694-9.649c-2.901-1.496-6.436-.946-8.743 1.361l-22.191 22.191c-2.308 2.309-2.858 5.844-1.361 8.743l9.711 18.815c-2.932 5.528-5.332 11.314-7.167 17.282l-20.162 6.435c-3.109.992-5.22 3.881-5.22 7.145v31.383c0 3.264 2.11 6.152 5.22 7.145l20.162 6.435c1.835 5.968 4.235 11.754 7.167 17.282l-9.711 18.815c-1.497 2.899-.946 6.436 1.361 8.743l22.191 22.19c2.307 2.307 5.842 2.856 8.743 1.361l18.815-9.711c5.528 2.932 11.315 5.331 17.282 7.166l6.435 20.162c.992 3.109 3.881 5.22 7.145 5.22h31.382c3.264 0 6.153-2.11 7.145-5.22l6.435-20.162c5.967-1.835 11.753-4.234 17.281-7.166l18.816 9.711c2.9 1.495 6.436.945 8.743-1.361l22.191-22.19c2.308-2.308 2.858-5.844 1.361-8.743l-9.711-18.815c2.932-5.528 5.332-11.314 7.166-17.282zm-28.554-6.632c-2.448.781-4.325 2.761-4.976 5.247-1.939 7.412-4.893 14.537-8.781 21.176-1.298 2.218-1.371 4.946-.192 7.229l9.043 17.522-14.442 14.441-17.522-9.043c-2.284-1.179-5.011-1.107-7.229.193-6.639 3.887-13.763 6.841-21.176 8.78-2.486.65-4.466 2.527-5.247 4.976l-5.991 18.773h-20.425l-5.991-18.773c-.781-2.448-2.761-4.325-5.247-4.976-7.413-1.938-14.538-4.894-21.177-8.78-2.217-1.3-4.945-1.372-7.229-.193l-17.521 9.043-14.442-14.441 9.043-17.522c1.179-2.283 1.106-5.012-.192-7.229-3.887-6.638-6.842-13.763-8.781-21.177-.65-2.485-2.528-4.465-4.976-5.246l-18.773-5.992v-20.424l18.773-5.992c2.448-.781 4.325-2.761 4.976-5.246 1.939-7.414 4.894-14.539 8.781-21.177 1.298-2.218 1.371-4.946.192-7.229l-9.043-17.522 14.442-14.442 17.521 9.044c2.427 1.252 5.343 1.086 7.613-.434 3.649-2.443 10.938-5.718 15.599-7.007 2.331-.645 4.208-2.374 5.041-4.645l7.575-20.638h28.059l7.575 20.638c.791 2.155 2.525 3.829 4.707 4.544 5.672 1.856 11.161 4.329 16.316 7.348 2.217 1.3 4.947 1.371 7.23.193l17.521-9.044 14.442 14.442-9.043 17.522c-1.179 2.283-1.106 5.012.192 7.229 3.888 6.639 6.842 13.764 8.781 21.176.65 2.486 2.528 4.466 4.976 5.247l18.773 5.992v20.424z"/><path d="m255.5 244c-31.154 0-56.5 25.346-56.5 56.5s25.346 56.5 56.5 56.5c7.249 0 14.311-1.355 20.99-4.029 3.845-1.54 5.715-5.905 4.175-9.75-1.54-3.846-5.904-5.716-9.75-4.176-4.898 1.961-10.084 2.955-15.415 2.955-22.883 0-41.5-18.617-41.5-41.5s18.617-41.5 41.5-41.5 41.5 18.617 41.5 41.5c0 6.466-1.443 12.657-4.291 18.4-1.84 3.712-.322 8.211 3.389 10.051 3.713 1.839 8.211.323 10.051-3.389 3.882-7.833 5.851-16.265 5.851-25.063 0-31.153-25.346-56.499-56.5-56.499z"/></g></svg>