<?xml version="1.0" encoding="UTF-8"?>
<svg xmlns="http://www.w3.org/2000/svg" fill="#C8242F" viewBox="0 0 512 512" width="512" height="512"><g id="outline"><path d="M495.981,415.635c-.008-.2-.02-.392-.043-.585-.011-.093-.027-.185-.042-.277-.031-.2-.067-.4-.114-.6-.009-.037-.012-.076-.021-.113L488,383.017V78a38.043,38.043,0,0,0-38-38H62A38.043,38.043,0,0,0,24,78V383.017L16.239,414.06c-.009.037-.012.076-.021.113-.047.2-.083.4-.114.6-.015.092-.031.183-.042.275-.023.193-.035.389-.043.586,0,.1-.014.194-.015.292,0,.024,0,.048,0,.073v22a34.038,34.038,0,0,0,34,34H462a34.038,34.038,0,0,0,34-34V416c0-.025,0-.049,0-.073C496,415.829,495.986,415.732,495.981,415.635ZM40,78A22.025,22.025,0,0,1,62,56H450a22.025,22.025,0,0,1,22,22V376H40ZM38.246,392H473.754l4,16H304a8,8,0,0,0-5.657,2.343L284.687,424H227.313l-13.656-13.657A8,8,0,0,0,208,408H34.246ZM480,438a18.021,18.021,0,0,1-18,18H50a18.021,18.021,0,0,1-18-18V424H204.687l13.656,13.657A8,8,0,0,0,224,440h64a8,8,0,0,0,5.657-2.343L307.313,424H480Z"/><path d="M262.11,237.911a9.444,9.444,0,0,1-6.1,2.09h-.024a9.439,9.439,0,0,1-6.1-2.091A4.848,4.848,0,0,1,248,234.3a8,8,0,0,0-16,0,20.855,20.855,0,0,0,7.483,15.764,24.482,24.482,0,0,0,8.517,4.69V264a8,8,0,0,0,16,0v-9.246a24.482,24.482,0,0,0,8.517-4.69A20.855,20.855,0,0,0,280,234.3v-1.175a21.166,21.166,0,0,0-10.077-17.691l-19.2-12.33A5.233,5.233,0,0,1,248,198.875V197.7a4.852,4.852,0,0,1,1.89-3.611,9.444,9.444,0,0,1,6.1-2.09h.024a9.439,9.439,0,0,1,6.1,2.091A4.848,4.848,0,0,1,264,197.7a8,8,0,0,0,16,0,20.855,20.855,0,0,0-7.483-15.764,24.482,24.482,0,0,0-8.517-4.69V168a8,8,0,0,0-16,0v9.246a24.482,24.482,0,0,0-8.517,4.69A20.855,20.855,0,0,0,232,197.7v1.175a21.166,21.166,0,0,0,10.077,17.691l19.2,12.33A5.233,5.233,0,0,1,264,233.125V234.3A4.852,4.852,0,0,1,262.11,237.911Z"/><path d="M256,296a79.625,79.625,0,0,0,54.206-21.158l12.9,41.176a8,8,0,0,0,13.188,3.366l11.517-11.106,16.66,17.275a8,8,0,0,0,13.3-2.886l4.631-13.094,13.253-4.152a8,8,0,0,0,3.367-13.188l-16.66-17.275,11.517-11.106a8,8,0,0,0-2.886-13.3l-56.337-19.921A80,80,0,1,0,256,296Zm117.455-34.681-7.958,7.675a8,8,0,0,0-.206,11.312l13.229,13.716L373.8,295.5a8,8,0,0,0-5.151,4.968L367,305.129l-13.229-13.716a8,8,0,0,0-11.312-.2l-7.958,7.674L316.418,241.15ZM256,152a63.9,63.9,0,0,1,63.319,73.205l-12.652-4.474a8,8,0,0,0-10.3,9.935l8.385,26.763A63.99,63.99,0,1,1,256,152Z"/><path d="M426,72H86A22.025,22.025,0,0,0,64,94V338a22.025,22.025,0,0,0,22,22H426a22.025,22.025,0,0,0,22-22V94A22.025,22.025,0,0,0,426,72Zm6,266a6.006,6.006,0,0,1-6,6H86a6.006,6.006,0,0,1-6-6V120H432Zm0-234H80V94a6.006,6.006,0,0,1,6-6H426a6.006,6.006,0,0,1,6,6Z"/><circle cx="224" cy="320" r="8"/><circle cx="256" cy="320" r="8"/><circle cx="288" cy="320" r="8"/></g></svg>
